<?xml version="1.0" standalone="no"?>
<!DOCTYPE svg PUBLIC "-//W3C//DTD SVG 20010904//EN"
 "http://www.w3.org/TR/2001/REC-SVG-20010904/DTD/svg10.dtd">
<svg version="1.0" xmlns="http://www.w3.org/2000/svg"
 width="843.000000pt" height="843.000000pt" viewBox="0 0 843.000000 843.000000"
 preserveAspectRatio="xMidYMid meet">
<metadata>
Created by potrace 1.11, written by Peter Selinger 2001-2013
</metadata>
<g transform="translate(0.000000,843.000000) scale(0.100000,-0.100000)"
fill="#000000" stroke="none">
<path d="M4195 8046 c-11 -6 -22 -14 -25 -17 -3 -3 -174 -123 -380 -266 -206
-143 -395 -274 -420 -292 -25 -17 -119 -82 -210 -145 -91 -63 -169 -119 -175
-123 -5 -5 -62 -44 -125 -88 -89 -61 -403 -280 -510 -355 -8 -6 -49 -34 -90
-63 -41 -29 -118 -82 -170 -118 -52 -36 -210 -146 -350 -244 -140 -98 -295
-206 -345 -241 -134 -92 -775 -539 -810 -564 -16 -12 -149 -105 -295 -206
-145 -101 -268 -188 -273 -193 -8 -8 56 -205 220 -681 29 -85 55 -162 58 -170
7 -26 346 -1028 406 -1200 16 -47 31 -92 33 -100 2 -8 16 -49 30 -90 113 -332
304 -897 337 -995 22 -66 43 -127 46 -135 3 -8 7 -19 9 -25 1 -5 82 -244 179
-530 97 -286 199 -589 228 -673 l51 -152 2601 0 2601 0 63 188 c35 103 101
297 147 432 153 455 445 1314 505 1490 33 96 64 189 69 205 5 17 74 224 155
460 80 237 175 516 210 620 118 348 295 870 299 880 2 6 4 12 4 15 1 3 35 104
76 224 42 121 76 223 76 226 0 4 -48 41 -107 83 -60 42 -112 80 -118 84 -5 5
-27 19 -48 32 -21 13 -43 28 -50 34 -6 7 -55 41 -107 76 -52 35 -105 71 -116
80 -12 9 -30 22 -40 29 -11 7 -49 34 -86 60 -37 26 -97 67 -133 92 -37 25 -72
50 -78 55 -7 6 -41 30 -77 54 -36 24 -94 64 -130 89 -78 55 -597 416 -623 434
-11 7 -41 29 -67 48 -27 19 -92 64 -145 100 -53 36 -106 73 -118 82 -17 13
-314 220 -427 298 -8 6 -68 47 -132 93 -65 45 -147 102 -184 127 -36 25 -71
50 -77 55 -7 6 -29 21 -50 34 -21 13 -43 28 -50 34 -6 7 -39 30 -72 53 -151
103 -260 178 -265 183 -3 3 -12 11 -21 16 -10 6 -37 24 -60 41 -47 32 -307
213 -399 277 -63 44 -145 102 -175 123 -11 7 -45 31 -75 52 -30 21 -77 54
-105 73 -69 49 -68 48 -90 35z"/>
</g>
</svg>
